<svg width="50" height="42" viewBox="0 0 50 42" fill="none" xmlns="http://www.w3.org/2000/svg">
<path fill-rule="evenodd" clip-rule="evenodd" d="M11.5894 16.0815H45.6379V21.6316H11.5894V16.0815Z" fill="white" fill-opacity="1"/>
<path fill-rule="evenodd" clip-rule="evenodd" d="M4.55664 16.0815H9.80856V21.6316H4.55664V16.0815Z" fill="white" fill-opacity="1"/>
<path fill-rule="evenodd" clip-rule="evenodd" d="M0.974121 12.116V40.3559C0.974121 40.7854 1.13435 41.1703 1.39249 41.4463C1.63728 41.7067 1.9733 41.8691 2.34274 41.8691H47.8473C48.2167 41.8691 48.5528 41.7089 48.7976 41.4463C49.0557 41.1726 49.2159 40.7853 49.2159 40.3559L49.2182 12.116H0.974121ZM10.6988 23.4119H3.66651C3.1747 23.4119 2.77636 23.0136 2.77636 22.5218V15.1915C2.77636 14.6997 3.1747 14.3013 3.66651 14.3013H46.5248C47.0166 14.3013 47.415 14.6997 47.415 15.1915V22.5218C47.415 23.0136 47.0166 23.4119 46.5248 23.4119H10.6988ZM6.17688 27.4933C6.17688 27.0015 6.57522 26.6031 7.06703 26.6031H15.2319C15.7237 26.6031 16.1221 27.0015 16.1221 27.4933V39.2034C16.1221 39.6952 15.7237 40.0936 15.2319 40.0936H7.06703C6.57522 40.0936 6.17688 39.6952 6.17688 39.2034V27.4933ZM20.1231 39.2034V27.4933C20.1231 27.0015 20.5214 26.6031 21.0132 26.6031H29.1781C29.6699 26.6031 30.0683 27.0015 30.0683 27.4933V39.2034C30.0683 39.6952 29.6699 40.0936 29.1781 40.0936H21.0132C20.5214 40.0936 20.1231 39.6952 20.1231 39.2034ZM34.0715 39.2034V27.4933C34.0715 27.0015 34.4699 26.6031 34.9617 26.6031H43.1266C43.6184 26.6031 44.0167 27.0015 44.0167 27.4933V39.2034C44.0167 39.6952 43.6184 40.0936 43.1266 40.0936H34.9617C34.4699 40.0936 34.0715 39.6952 34.0715 39.2034Z" fill="white" fill-opacity="1"/>
<path fill-rule="evenodd" clip-rule="evenodd" d="M7.95508 28.3833H14.342V38.3154H7.95508V28.3833Z" fill="white" fill-opacity="1"/>
<path fill-rule="evenodd" clip-rule="evenodd" d="M21.9038 28.3833H28.2907V38.3154H21.9038V28.3833Z" fill="white" fill-opacity="1"/>
<path fill-rule="evenodd" clip-rule="evenodd" d="M35.8511 28.3833H42.2379V38.3154H35.8511V28.3833Z" fill="white" fill-opacity="1"/>
<path fill-rule="evenodd" clip-rule="evenodd" d="M0.974121 10.3379H49.2183V1.97471C49.2183 1.54521 49.0581 1.16021 48.8 0.884249C48.5552 0.623881 48.2192 0.461426 47.8497 0.461426L2.34517 0.463651C1.97575 0.463651 1.63971 0.623878 1.39491 0.886474C1.13677 1.1602 0.976537 1.54744 0.976537 1.97693V9.23829L0.974121 10.3379ZM46.5254 6.21422H28.8847C28.3929 6.21422 27.9946 5.81588 27.9946 5.32407C27.9946 4.83226 28.3929 4.43392 28.8847 4.43392H46.5254C47.0172 4.43392 47.4155 4.83226 47.4155 5.32407C47.4133 5.81588 47.0172 6.21422 46.5254 6.21422ZM25.609 5.39972C25.609 6.29654 25.244 7.11104 24.6565 7.69857C24.069 8.2861 23.2545 8.65104 22.3576 8.65104C21.4608 8.65104 20.6463 8.28608 20.0588 7.69857C19.4713 7.11105 19.1063 6.2966 19.1063 5.39972C19.1063 4.50291 19.4713 3.68841 20.0588 3.10088C20.6463 2.51335 21.4608 2.14841 22.3576 2.14841C23.2545 2.14841 24.069 2.51337 24.6565 3.10088C25.2462 3.69063 25.609 4.50285 25.609 5.39972ZM16.4915 3.10088C17.079 3.68835 17.444 4.50285 17.444 5.39972C17.444 6.29654 17.079 7.11104 16.4915 7.69857C15.904 8.2861 15.0896 8.65104 14.1927 8.65104C13.2959 8.65104 12.4814 8.28608 11.8938 7.69857C11.3063 7.11105 10.9414 6.2966 10.9414 5.39972C10.9414 4.50291 11.3063 3.68841 11.8938 3.10088C12.4814 2.51335 13.2958 2.14841 14.1927 2.14841C15.0917 2.14841 15.904 2.51337 16.4915 3.10088ZM8.32663 3.10088C8.9141 3.68835 9.27911 4.50285 9.27911 5.39972C9.27911 6.29654 8.91415 7.11104 8.32663 7.69857C7.73911 8.2861 6.92466 8.65104 6.02779 8.65104C5.13092 8.65104 4.31648 8.28608 3.72895 7.69857C3.14142 7.11105 2.77647 6.2966 2.77647 5.39972C2.77647 4.50291 3.14143 3.68841 3.72895 3.10088C4.31647 2.51335 5.13092 2.14841 6.02779 2.14841C6.92683 2.14841 7.7391 2.51337 8.32663 3.10088Z" fill="white" fill-opacity="1"/>
<path fill-rule="evenodd" clip-rule="evenodd" d="M20.8872 5.39994C20.8872 5.80718 21.0519 6.17439 21.3189 6.44141C21.586 6.70842 21.9532 6.87313 22.3604 6.87313C22.7676 6.87313 23.1348 6.70845 23.4019 6.44141C23.6689 6.17436 23.8336 5.80716 23.8336 5.39994C23.8336 4.9927 23.6689 4.6255 23.4019 4.35848C23.1348 4.09146 22.7676 3.92676 22.3604 3.92676C21.9532 3.92676 21.5859 4.09143 21.3189 4.35848C21.0519 4.62552 20.8872 4.99494 20.8872 5.39994Z" fill="white" fill-opacity="1"/>
<path fill-rule="evenodd" clip-rule="evenodd" d="M12.7217 5.39994C12.7217 5.80718 12.8864 6.17439 13.1534 6.44141C13.4204 6.70842 13.7876 6.87313 14.1949 6.87313C14.6021 6.87313 14.9693 6.70845 15.2363 6.44141C15.5033 6.17436 15.668 5.80716 15.668 5.39994C15.668 4.9927 15.5034 4.6255 15.2363 4.35848C14.9693 4.09146 14.6021 3.92676 14.1949 3.92676C13.7876 3.92676 13.4204 4.09143 13.1534 4.35848C12.8864 4.62552 12.7217 4.99494 12.7217 5.39994Z" fill="white" fill-opacity="1"/>
<path fill-rule="evenodd" clip-rule="evenodd" d="M4.55664 5.39994C4.55664 5.80718 4.72132 6.17439 4.98836 6.44141C5.25541 6.70842 5.62261 6.87313 6.02983 6.87313C6.43707 6.87313 6.80427 6.70845 7.07129 6.44141C7.33831 6.17436 7.50301 5.80716 7.50301 5.39994C7.50301 4.9927 7.33833 4.6255 7.07129 4.35848C6.80424 4.09146 6.43705 3.92676 6.02983 3.92676C5.62258 3.92676 5.25538 4.09143 4.98836 4.35848C4.72135 4.62552 4.55664 4.99494 4.55664 5.39994Z" fill="white" fill-opacity="1"/>
</svg>
